HIERARCHY
ROOT Hips
{
	OFFSET 0.000000 0.000000 0.000000
	CHANNELS 6 Xposition Yposition Zposition Zrotation Yrotation Xrotation 
	JOINT LHipJoint
	{
		OFFSET 0.000000 0.000000 0.000000
		CHANNELS 3 Zrotation Yrotation Xrotation
		JOINT LeftUpLeg
		{
			OFFSET 1.363060 -1.794630 0.839290
			CHANNELS 3 Zrotation Yrotation Xrotation
			JOINT LeftLeg
			{
				OFFSET 2.448110 -6.726130 0.000000
				CHANNELS 3 Zrotation Yrotation Xrotation
				JOINT LeftFoot
				{
					OFFSET 2.562200 -7.039590 0.000000
					CHANNELS 3 Zrotation Yrotation Xrotation
					JOINT LeftToeBase
					{
						OFFSET 0.157640 -0.433110 2.322550
						CHANNELS 3 Zrotation Yrotation Xrotation
						End Site
						{
							OFFSET 0.000000 0.000000 0.000000
						}
					}
				}
			}
		}
	}
	JOINT RHipJoint
	{
		OFFSET 0.000000 0.000000 0.000000
		CHANNELS 3 Zrotation Yrotation Xrotation
		JOINT RightUpLeg
		{
			OFFSET -1.305520 -1.794630 0.839290
			CHANNELS 3 Zrotation Yrotation Xrotation
			JOINT RightLeg
			{
				OFFSET -2.542530 -6.985550 0.000000
				CHANNELS 3 Zrotation Yrotation Xrotation
				JOINT RightFoot
				{
					OFFSET -2.568260 -7.056230 0.000000
					CHANNELS 3 Zrotation Yrotation Xrotation
					JOINT RightToeBase
					{
						OFFSET -0.164730 -0.452590 2.363150
						CHANNELS 3 Zrotation Yrotation Xrotation
						End Site
						{
							OFFSET 0.000000 0.000000 0.000000
						}
					}
				}
			}
		}
	}
	JOINT LowerBack
	{
		OFFSET 0.000000 0.000000 0.000000
		CHANNELS 3 Zrotation Yrotation Xrotation
		JOINT Spine
		{
			OFFSET 0.028270 2.035590 -0.193380
			CHANNELS 3 Zrotation Yrotation Xrotation
			JOINT Spine1
			{
				OFFSET 0.056720 2.048850 -0.042750
				CHANNELS 3 Zrotation Yrotation Xrotation
				JOINT Neck
				{
					OFFSET 0.000000 0.000000 0.000000
					CHANNELS 3 Zrotation Yrotation Xrotation
					JOINT Neck1
					{
						OFFSET -0.054170 1.746240 0.172020
						CHANNELS 3 Zrotation Yrotation Xrotation
						JOINT Head
						{
							OFFSET 0.104070 1.761360 -0.123970
							CHANNELS 3 Zrotation Yrotation Xrotation
							End Site
							{
								OFFSET 0.000000 0.000000 0.000000
							}
						}
					}
				}
				JOINT LeftShoulder
				{
					OFFSET 0.000000 0.000000 0.000000
					CHANNELS 3 Zrotation Yrotation Xrotation
					JOINT LeftArm
					{
						OFFSET 3.362410 1.200890 -0.311210
						CHANNELS 3 Zrotation Yrotation Xrotation
						JOINT LeftForeArm
						{
							OFFSET 4.983000 -0.000000 -0.000000
							CHANNELS 3 Zrotation Yrotation Xrotation
							JOINT LeftHand
							{
								OFFSET 3.483560 -0.000000 -0.000000
								CHANNELS 3 Zrotation Yrotation Xrotation
								JOINT LeftFingerBase
								{
									OFFSET 0.000000 0.000000 0.000000
									CHANNELS 3 Zrotation Yrotation Xrotation
									JOINT LeftHandIndex1
									{
										OFFSET 0.715260 -0.000000 -0.000000
										CHANNELS 3 Zrotation Yrotation Xrotation
										End Site
										{
											OFFSET 0.000000 0.000000 0.000000
										}
									}
								}
								JOINT LThumb
								{
									OFFSET 0.000000 0.000000 0.000000
									CHANNELS 3 Zrotation Yrotation Xrotation
									End Site
									{
										OFFSET 0.000000 0.000000 0.000000
									}
								}
							}
						}
					}
				}
				JOINT RightShoulder
				{
					OFFSET 0.000000 0.000000 0.000000
					CHANNELS 3 Zrotation Yrotation Xrotation
					JOINT RightArm
					{
						OFFSET -3.136600 1.374050 -0.404650
						CHANNELS 3 Zrotation Yrotation Xrotation
						JOINT RightForeArm
						{
							OFFSET -5.241900 -0.000000 -0.000000
							CHANNELS 3 Zrotation Yrotation Xrotation
							JOINT RightHand
							{
								OFFSET -3.444170 -0.000000 -0.000000
								CHANNELS 3 Zrotation Yrotation Xrotation
								JOINT RightFingerBase
								{
									OFFSET 0.000000 0.000000 0.000000
									CHANNELS 3 Zrotation Yrotation Xrotation
									JOINT RightHandIndex1
									{
										OFFSET -0.622530 -0.000000 -0.000000
										CHANNELS 3 Zrotation Yrotation Xrotation
										End Site
										{
											OFFSET 0.000000 0.000000 0.000000
										}
									}
								}
								JOINT RThumb
								{
									OFFSET 0.000000 0.000000 0.000000
									CHANNELS 3 Zrotation Yrotation Xrotation
									End Site
									{
										OFFSET 0.000000 0.000000 0.000000
									}
								}
							}
						}
					}
				}
			}
		}
	}
}
MOTION
Frames: 4
Frame Time: 0.008333
-9.738252 16.804106 -0.953969 14.501156 80.383595 24.394818 -9.024442 0.563762 2.041435 -17.654052 1.060443 -36.604817 -2.343009 0.351519 24.972305 1.872957 9.452442 -7.669162 0.256100 -0.000000 -14.224300 11.384042 -4.690120 -0.928739 0.992439 -11.290308 -1.532399 0.626132 -3.188102 38.449693 0.521456 21.176357 19.938456 9.364600 0.000000 -79.774400 -9.820622 1.961384 -2.756593 -2.507131 2.500178 -4.035788 -4.606125 2.366036 -1.504318 5.056432 -1.002144 -7.118641 -1.849471 -0.153976 0.128372 0.000000 0.000000 0.000000 -9.348004 17.020062 3.190393 -65.939258 34.412557 6.650661 -4.605645 -17.653523 -0.021342 -3.304537 9.144538 -0.261749 -0.084099 -0.121082 -0.000000 0.000000 0.000000 0.000000 0.000000 0.000000 0.000000 2.352706 6.570492 -0.826130 46.669386 44.427860 18.487048 0.368366 82.495996 -0.044420 -4.630537 7.680644 -0.334330 0.003926 -0.576188 -0.000000 0.000000 0.000000 0.000000 0.000000 0.000000 0.000000 
-9.568328 16.749641 -0.938120 16.095647 80.075825 25.686421 -8.952625 0.614155 1.837443 -18.254076 1.457229 -36.932396 -2.261238 0.549839 27.446258 1.940900 9.701351 -8.380016 0.102400 -0.000000 -12.418400 11.660338 -4.619074 -1.039524 0.000469 -11.953341 -3.077382 0.348215 -3.393108 42.221387 0.322797 20.387670 21.152173 9.504201 -0.000000 -78.416400 -10.168932 1.832477 -2.490302 -2.593548 2.395908 -4.011647 -4.722310 2.268011 -1.595697 5.390773 -0.841069 -7.065910 -1.937306 -0.160895 0.133613 0.000000 0.000000 0.000000 -9.440307 16.591188 3.279344 -66.107233 33.588087 7.633544 -4.567435 -17.544489 -0.021412 -3.523165 9.510176 -0.290654 -0.080402 -0.116020 -0.000000 0.000000 0.000000 0.000000 0.000000 0.000000 0.000000 3.002744 6.836061 -0.724986 48.204212 43.634255 19.326257 0.377966 81.870945 -0.043728 -4.710774 7.782726 -0.344733 0.012004 -0.573857 -0.000000 0.000000 0.000000 0.000000 0.000000 0.000000 0.000000 
-9.403844 16.692009 -0.925160 17.504850 79.750971 26.766359 -8.887526 0.662555 1.605799 -18.852910 1.934077 -37.236004 -2.185533 0.746027 29.925960 1.995875 9.851572 -9.222745 -0.088300 0.000000 -10.870900 11.913867 -4.509897 -1.170125 -0.915217 -12.536743 -4.655210 0.063357 -3.603859 46.106311 0.112300 18.830687 22.076358 9.160001 -0.000000 -76.844100 -10.452027 1.704140 -2.159186 -2.663911 2.288579 -3.976961 -4.832947 2.167164 -1.701360 5.673969 -0.648122 -7.008829 -2.031421 -0.168231 0.138880 0.000000 0.000000 0.000000 -9.598125 16.150911 3.377359 -66.235463 32.598874 8.716757 -4.529744 -17.402701 -0.021509 -3.827812 9.850531 -0.327658 -0.077024 -0.109933 -0.000000 0.000000 0.000000 0.000000 0.000000 0.000000 0.000000 3.619723 7.139997 -0.634933 49.774152 42.752025 20.130268 0.386499 81.155820 -0.043098 -4.798549 7.912345 -0.357043 0.019629 -0.571189 0.000000 0.000000 0.000000 0.000000 0.000000 0.000000 0.000000 
-9.244412 16.632000 -0.915117 18.797451 79.422397 27.704633 -8.825433 0.709454 1.355032 -19.444733 2.444165 -37.457989 -2.118048 0.932282 32.333483 2.044062 9.938911 -10.196075 -0.311800 0.000001 -9.606800 12.149114 -4.363644 -1.322587 -1.764511 -13.043703 -6.250000 -0.228559 -3.823711 50.062558 -0.114049 16.506580 22.631060 8.303300 0.000000 -75.070900 -10.677814 1.575838 -1.766628 -2.720231 2.177978 -3.930855 -4.937739 2.063208 -1.813967 5.911075 -0.436344 -6.950476 -2.132439 -0.175974 0.143258 0.000000 0.000000 0.000000 -9.796880 15.710610 3.482880 -66.323152 31.408316 9.892773 -4.492172 -17.190613 -0.021482 -4.182793 10.119163 -0.368354 -0.074052 -0.102765 -0.000000 0.000000 0.000000 0.000000 0.000000 0.000000 0.000000 4.215769 7.464885 -0.555203 51.353234 41.786063 20.882576 0.394811 80.336895 -0.042534 -4.889702 8.076400 -0.371163 0.026561 -0.568185 0.000000 0.000000 0.000000 0.000000 0.000000 0.000000 0.000000 
